<?xml version="1.0" standalone="no"?>
<!DOCTYPE svg PUBLIC "-//W3C//DTD SVG 20010904//EN"
 "http://www.w3.org/TR/2001/REC-SVG-20010904/DTD/svg10.dtd">
<svg version="1.0" xmlns="http://www.w3.org/2000/svg"
 width="100.000000pt" height="100.000000pt" viewBox="0 0 100.000000 100.000000"
 preserveAspectRatio="xMidYMid meet">

<g transform="translate(0.000000,100.000000) scale(0.100000,-0.100000)"
fill="#000000" stroke="none">
<path d="M202 610 c-19 -53 -22 -90 -7 -90 9 0 15 10 15 24 0 36 17 40 24 6 7
-37 23 -39 32 -5 3 14 10 25 15 25 5 0 9 -11 9 -25 0 -14 5 -25 11 -25 15 0 6
87 -10 103 -8 8 -14 3 -23 -21 -13 -32 -28 -43 -28 -19 0 7 -6 22 -14 33 -14
18 -15 18 -24 -6z"/>
<path d="M404 617 c-3 -8 -4 -32 -2 -53 3 -34 6 -39 31 -42 15 -2 27 1 27 7 0
6 -7 11 -15 11 -11 0 -15 11 -15 39 0 41 -16 64 -26 38z"/>
<path d="M495 606 c-20 -20 -23 -30 -16 -48 12 -34 55 -46 81 -23 25 23 26 49
0 75 -26 26 -36 25 -65 -4z m59 -23 c9 -21 -16 -46 -37 -37 -17 6 -23 35 -10
47 12 13 41 7 47 -10z"/>
<path d="M752 614 c-34 -23 -27 -75 11 -88 21 -8 31 -6 44 7 20 19 10 35 -10
18 -19 -15 -47 -4 -47 19 0 25 22 41 40 30 8 -6 22 -10 30 -10 10 1 8 7 -9 20
-28 24 -30 24 -59 4z"/>
<path d="M330 570 c0 -46 2 -50 24 -50 14 0 28 5 31 10 3 6 -3 10 -14 10 -28
0 -27 16 2 25 l22 8 -22 4 c-25 5 -32 23 -9 23 8 0 18 5 21 10 4 6 -7 10 -24
10 -30 0 -31 -1 -31 -50z"/>
<path d="M590 575 c0 -52 16 -65 56 -47 17 8 24 20 24 40 0 36 -16 52 -52 52
-27 0 -28 -2 -28 -45z m58 -2 c2 -11 -4 -23 -12 -26 -12 -5 -16 1 -16 24 0 35
23 36 28 2z"/>
<path d="M690 570 c0 -27 5 -50 10 -50 6 0 10 23 10 50 0 28 -4 50 -10 50 -5
0 -10 -22 -10 -50z"/>
<path d="M180 435 c0 -54 0 -55 30 -55 39 0 65 36 51 72 -10 26 -29 38 -62 38
-16 0 -19 -7 -19 -55z m53 13 c13 -20 2 -48 -18 -48 -11 0 -15 10 -15 36 0 37
14 42 33 12z"/>
<path d="M280 435 c0 -42 3 -55 15 -55 12 0 15 13 15 55 0 42 -3 55 -15 55
-12 0 -15 -13 -15 -55z"/>
<path d="M346 477 c-21 -16 -24 -60 -6 -82 16 -19 64 -19 83 0 13 13 16 13 27
0 19 -23 66 -19 84 7 19 26 13 38 -20 38 -28 0 -33 -16 -6 -23 16 -4 16 -4 -1
-12 -26 -11 -47 1 -47 29 0 29 24 40 50 24 26 -16 40 0 16 18 -26 18 -55 18
-76 -1 -15 -14 -18 -14 -30 0 -15 19 -50 19 -74 2z m68 -22 c19 -15 19 -15 -1
-15 -28 0 -39 -17 -16 -23 17 -4 17 -4 1 -12 -39 -16 -65 24 -36 53 16 16 29
15 52 -3z"/>
<path d="M560 435 l0 -55 35 0 c19 0 35 5 35 10 0 6 -9 10 -20 10 -11 0 -20 5
-20 10 0 6 9 10 20 10 11 0 20 5 20 10 0 6 -9 10 -20 10 -11 0 -20 7 -20 15 0
8 9 15 20 15 11 0 20 5 20 10 0 6 -16 10 -35 10 l-35 0 0 -55z"/>
<path d="M650 436 c0 -31 5 -56 10 -56 6 0 10 8 10 18 1 16 1 16 14 0 7 -10
21 -18 31 -18 17 0 17 1 2 18 -12 13 -14 21 -6 29 6 6 9 21 7 34 -2 19 -10 25
-35 27 l-33 3 0 -55z m50 19 c0 -8 -7 -15 -15 -15 -8 0 -15 7 -15 15 0 8 7 15
15 15 8 0 15 -7 15 -15z"/>
<path d="M753 484 c-25 -11 -14 -45 17 -57 17 -6 30 -15 30 -19 0 -14 -21 -19
-35 -8 -8 7 -20 10 -27 8 -22 -8 35 -38 59 -32 45 12 39 59 -9 69 -22 5 -27
10 -19 18 9 9 17 8 32 -1 18 -12 20 -11 17 5 -3 18 -40 27 -65 17z"/>
</g>
</svg>
