<?xml version="1.0" standalone="no"?>
<!DOCTYPE svg PUBLIC "-//W3C//DTD SVG 20010904//EN"
 "http://www.w3.org/TR/2001/REC-SVG-20010904/DTD/svg10.dtd">
<svg version="1.0" xmlns="http://www.w3.org/2000/svg"
 width="100.000000pt" height="100.000000pt" viewBox="0 0 100.000000 100.000000"
 preserveAspectRatio="xMidYMid meet">
<metadata>
Created by potrace 1.14, written by Peter Selinger 2001-2017
</metadata>
<g transform="translate(0.000000,100.000000) scale(0.100000,-0.100000)"
fill="#000000" stroke="none">
<path d="M201 608 c-17 -47 -21 -77 -10 -83 14 -9 19 -3 21 28 3 29 14 24 20
-8 5 -27 32 -25 36 3 5 30 22 28 22 -4 0 -24 2 -25 48 -22 26 2 46 8 44 13 -2
6 -10 9 -18 7 -22 -5 -16 15 7 21 12 3 18 10 14 16 -3 6 -10 9 -15 6 -5 -3
-11 -1 -14 4 -3 5 4 11 16 14 27 7 18 19 -17 23 -26 3 -28 -2 -27 -63 2 -52
-15 -38 -22 17 -6 46 -8 49 -26 40 -11 -6 -20 -20 -20 -30 0 -31 -17 -23 -23
10 -8 36 -24 39 -36 8z"/>
<path d="M406 608 c-3 -13 -4 -38 -3 -55 1 -29 4 -33 28 -33 15 0 31 5 34 10
3 6 -3 10 -14 10 -18 0 -21 6 -21 39 0 44 -17 64 -24 29z"/>
<path d="M499 616 c-28 -20 -32 -53 -10 -75 12 -12 29 -21 39 -21 24 0 52 31
52 57 0 37 -51 62 -81 39z m55 -31 c3 -8 -2 -22 -11 -30 -14 -15 -18 -15 -31
-1 -8 8 -12 22 -9 30 8 20 43 21 51 1z"/>
<path d="M595 617 c-2 -7 -3 -30 -2 -52 2 -35 5 -40 28 -43 14 -2 31 4 39 13
14 17 17 62 4 75 -15 15 -65 20 -69 7z m52 -33 c3 -8 -1 -22 -9 -31 -14 -13
-16 -11 -20 16 -5 33 17 45 29 15z"/>
<path d="M690 575 c0 -30 4 -55 9 -55 13 0 17 26 13 72 -6 58 -22 45 -22 -17z"/>
<path d="M759 623 c-44 -11 -40 -87 5 -99 28 -7 75 19 56 31 -6 4 -18 1 -26
-6 -12 -10 -18 -9 -31 4 -9 9 -13 23 -9 32 5 14 14 16 44 11 l37 -6 -24 20
c-13 11 -26 19 -30 19 -3 -1 -13 -3 -22 -6z"/>
<path d="M175 436 c0 -49 2 -55 23 -59 26 -5 57 18 67 50 8 29 -26 63 -63 63
-27 0 -27 -2 -27 -54z m65 -6 c0 -18 -23 -34 -34 -23 -8 8 -8 48 1 56 10 10
33 -13 33 -33z"/>
<path d="M280 430 c0 -49 3 -58 15 -54 11 5 15 21 15 60 0 41 -4 54 -15 54
-12 0 -15 -13 -15 -60z"/>
<path d="M335 466 c-39 -59 47 -124 92 -69 10 12 13 12 21 -3 20 -36 100 -12
102 31 0 14 -47 18 -55 5 -3 -6 -1 -10 4 -10 6 0 11 -5 11 -11 0 -19 -45 -5
-48 15 -6 28 25 48 49 33 23 -14 36 -3 19 18 -16 19 -59 19 -80 0 -15 -14 -18
-14 -30 0 -20 24 -67 19 -85 -9z m75 -11 c24 -14 24 -14 3 -15 -12 0 -25 -4
-28 -10 -3 -5 2 -10 11 -10 14 0 15 -3 7 -11 -26 -26 -66 18 -43 46 15 18 18
18 50 0z"/>
<path d="M560 436 c0 -46 3 -54 21 -59 24 -6 49 1 49 14 0 5 -9 9 -20 9 -11 0
-20 5 -20 10 0 6 9 10 21 10 12 0 19 5 16 13 -2 6 -12 11 -21 11 -9 -1 -16 5
-16 13 0 7 7 13 16 11 10 -2 19 3 21 10 3 8 -7 12 -31 12 l-36 0 0 -54z"/>
<path d="M649 478 c0 -7 -2 -30 -3 -51 -1 -21 3 -42 11 -49 13 -10 17 -2 14
27 0 6 6 0 15 -12 9 -12 22 -19 30 -16 13 5 12 8 -2 24 -9 11 -12 19 -7 19 15
0 22 34 11 54 -11 19 -68 22 -69 4z m51 -29 c0 -5 -7 -9 -15 -9 -9 0 -12 6 -9
15 6 15 24 11 24 -6z"/>
<path d="M743 474 c-8 -22 9 -48 36 -52 11 -2 21 -7 21 -12 0 -17 -17 -19 -36
-5 -10 8 -22 15 -26 15 -8 0 2 -40 11 -41 40 -5 54 -4 68 6 22 16 9 51 -22 59
-14 4 -25 11 -25 16 0 14 28 12 33 -2 2 -7 8 -10 12 -6 4 4 5 14 2 23 -9 21
-66 20 -74 -1z"/>
</g>
</svg>
